#!OML:ASF E:\inclinewalkrobotboard\Project 1\Capture day 1\Session 1\subject1.ASF
:FULLY-SPECIFIED
:DEGREES
256
root 8.40534 19.8996 9.66247 -172.237 6.05832 181.556
lowerback 2.41948 4.27327 -1.66813
upperback 4.46795 5.92344 2.1955
thorax 2.85225 2.98637 3.18286
lowerneck -6.04432 -0.00661824 -4.13148
upperneck 27.4198 -3.21069 5.28081
head 9.77163 -2.19547 2.09613
rclavicle 4.92986e-014 -1.11319e-014
rhumerus -6.74799 -0.477213 -87.8162
rradius 40.5537
rwrist -4.13926
rhand -17.5772 -35.3193
rfingers 7.12502
rthumb 8.67839 -65.1209
lclavicle 4.92986e-014 -1.11319e-014
lhumerus -41.8859 19.3343 71.2107
lradius 13.4442
lwrist -35.3477
lhand -22.3098 -21.6011
lfingers 7.12502
lthumb 4.10962 8.33899
rfemur -0.192999 2.70481 26.3553
rtibia 14.3722
rfoot -23.5922 4.99941
rtoes -30.7408
lfemur -47.1634 -3.97288 -11.3378
ltibia 22.4964
lfoot -15.46 7.70673
ltoes -60.7986
257
root 8.39642 19.8856 9.36145 -172.444 6.82733 181.547
lowerback 2.42425 4.61675 -1.69631
upperback 4.50177 6.38215 2.024
thorax 2.87151 3.21518 3.01904
lowerneck -5.47015 -0.0587511 -4.21668
upperneck 27.1487 -3.41308 5.69912
head 9.58212 -2.27387 2.23879
rclavicle -4.21423e-014 -2.14687e-014
rhumerus -6.62372 -0.326848 -88.2519
rradius 40.6045
rwrist -4.42116
rhand -17.7588 -34.5327
rfingers 7.12502
rthumb 8.50315 -64.3415
lclavicle -4.21423e-014 -2.14687e-014
lhumerus -42.7909 21.274 68.9355
lradius 12.484
lwrist -39.764
lhand -23.8302 -23.8344
lfingers 7.12502
lthumb 2.64135 6.12895
rfemur 0.889722 3.13782 26.167
rtibia 14.9783
rfoot -23.3858 5.54556
rtoes -30.042
lfemur -47.0095 -3.48116 -11.4875
ltibia 21.7028
lfoot -15.4895 8.33942
ltoes -61.2332
258
root 8.38647 19.8838 9.05614 -172.545 7.77415 181.102
lowerback 2.33494 4.91852 -2.13783
upperback 4.49591 6.77696 1.65073
thorax 2.88692 3.39772 2.88242
lowerneck -5.05398 -0.0169454 -4.1989
upperneck 27.0361 -3.47404 5.97564
head 9.46934 -2.2935 2.32717
rclavicle 2.36554e-014 2.54444e-014
rhumerus -6.57338 -0.333267 -88.9257
rradius 40.4615
rwrist -4.21287
rhand -17.8347 -33.3227
rfingers 7.12502
rthumb 8.42989 -63.1344
lclavicle 2.36554e-014 2.54444e-014
lhumerus -43.3772 22.7403 67.1864
lradius 11.8848
lwrist -41.9212
lhand -23.913 -23.8226
lfingers 7.12502
lthumb 2.56137 6.14176
rfemur 1.74368 3.84268 25.4522
rtibia 15.674
rfoot -22.9952 5.91285
rtoes -29.3548
lfemur -46.8778 -3.11926 -12.0514
ltibia 21.4823
lfoot -15.5925 8.80486
ltoes -60.9218
259
root 8.3694 19.8915 8.7382 -172.587 8.68772 180.735
lowerback 2.06594 5.0379 -2.20034
upperback 4.62768 6.95259 1.13281
thorax 3.22026 3.48261 2.42421
lowerneck -5.15095 0.157288 -4.08218
upperneck 27.1028 -3.27849 6.07826
head 9.49931 -2.18244 2.36109
rclavicle 1.2424e-013 -2.42517e-014
rhumerus -6.21721 -0.282147 -89.9507
rradius 40.0207
rwrist -3.63162
rhand -17.6861 -33.1056
rfingers 7.12502
rthumb 8.57326 -62.9115
lclavicle 1.2424e-013 -2.42517e-014
lhumerus -43.9105 24.9169 64.8765
lradius 11.1917
lwrist -44.2898
lhand -24.3104 -24.1522
lfingers 7.12502
lthumb 2.17761 5.81647
rfemur 2.66436 4.43115 24.7385
rtibia 16.2248
rfoot -22.2092 6.43399
rtoes -29.7799
lfemur -46.5989 -2.97634 -12.5761
ltibia 21.6962
lfoot -16.0755 9.27938
ltoes -60.6826
260
root 8.3471 19.9054 8.40163 -172.572 9.62668 180.682
lowerback 1.73469 5.21943 -2.36301
upperback 4.71699 7.20777 0.988588
thorax 3.48478 3.60018 2.406
lowerneck -5.19553 0.248651 -4.07295
upperneck 27.2147 -3.14454 5.97304
head 9.538 -2.13476 2.33552
rclavicle 3.22031e-014 -7.15625e-015
rhumerus -6.17877 -0.0994565 -90.4331
rradius 39.5832
rwrist -3.06809
rhand -17.3016 -34.2441
rfingers 7.12502
rthumb 8.94432 -64.0345
lclavicle 3.22031e-014 -7.15625e-015
lhumerus -44.5782 26.3475 63.5549
lradius 10.8879
lwrist -45.6235
lhand -24.4006 -24.0972
lfingers 7.12502
lthumb 2.09047 5.87233
rfemur 3.73917 4.83038 24.2302
rtibia 16.5202
rfoot -20.9883 7.35858
rtoes -30.5939
lfemur -46.0527 -2.7753 -12.9122
ltibia 22.2505
lfoot -16.8687 9.70067
ltoes -60.1255
